<svg xmlns="http://www.w3.org/2000/svg" viewBox="0 0 445.92 312.12" width="445.92" height="312.12"><defs><style>.cls-1{fill:#fff;}</style></defs><title>Asset 2</title><g id="Layer_2" data-name="Layer 2"><g id="Layer_1-2" data-name="Layer 1"><path class="cls-1" d="M280,132.59c-3.39,0-5.81,1.17-7.41,3.59s-2.41,5.92-2.41,10.34.81,7.92,2.42,10.38,4,3.63,7.4,3.63,5.82-1.19,7.43-3.63,2.45-6,2.45-10.38-.83-7.9-2.45-10.34S283.41,132.59,280,132.59Z"/><path class="cls-1" d="M110.78,149.3a5.66,5.66,0,0,0-2.31,5,6.15,6.15,0,0,0,.78,3.36,5,5,0,0,0,1.49,1.53s2.32,1.83,7.58,1.51a52.92,52.92,0,0,0,7-.92V148a52.32,52.32,0,0,0-7-.6C113,147.36,110.77,149.3,110.78,149.3Z"/><path class="cls-1" d="M176.08,132.42a8.25,8.25,0,0,0-7.39,3.76,15.16,15.16,0,0,0-2.08,6.09H185a12.83,12.83,0,0,0-1.71-6.1A8,8,0,0,0,176.08,132.42Z"/><path class="cls-1" d="M383.08,132.42a8.23,8.23,0,0,0-7.39,3.76,15.06,15.06,0,0,0-2.09,6.09H392a12.75,12.75,0,0,0-1.72-6.1A8,8,0,0,0,383.08,132.42Z"/><path class="cls-1" d="M349.78,42.28a95.11,95.11,0,0,0-38.88,8.26C297.22,26.18,271.54,9.76,242.11,9.76A78.14,78.14,0,0,0,185.56,34,86.59,86.59,0,0,0,37.21,120.89,75.3,75.3,0,0,0,0,186c0,41.53,33.32,75.2,74.42,75.2a74,74,0,0,0,15.3-1.59,80.17,80.17,0,0,0,149,3.62,70.27,70.27,0,0,0,92.08-28.91,96,96,0,0,0,18.94,1.89c53.09,0,96.14-43.42,96.14-97S402.87,42.28,349.78,42.28ZM95.48,154.82c0,7.83-5.68,12.69-14.83,12.69a27.18,27.18,0,0,1-13.34-3.11,26.62,26.62,0,0,1-2.54-1.54c-.09-.12-.47-.28-.19-1l1.8-5a.73.73,0,0,1,1.21-.41c.5.3.87.57,1.51,1a21.59,21.59,0,0,0,11.78,3.39c4,0,6.44-2.11,6.44-4.94v-.16c0-3.09-3.79-4.26-8.2-5.61l-1-.3c-6-1.72-12.49-4.21-12.49-11.84v-.15c0-7.25,5.85-12.31,14.22-12.31h.91A26,26,0,0,1,93.9,129a.85.85,0,0,1,.45,1c-.16.45-1.68,4.54-1.86,5-.32.86-1.21.29-1.21.29a26.33,26.33,0,0,0-11.62-3c-3.55,0-5.83,1.88-5.83,4.44v.15c0,3,3.91,4.26,8.45,5.73l.79.25c6,1.9,12.43,4.53,12.43,11.78ZM132.93,165s-1,.26-1.81.46-4,.83-6.51,1.26a47.26,47.26,0,0,1-7.85.66,30.87,30.87,0,0,1-6.85-.7,14.17,14.17,0,0,1-5.26-2.28,10.63,10.63,0,0,1-3.37-4,13.42,13.42,0,0,1-1.19-5.9,12.09,12.09,0,0,1,5.13-10.22,16.7,16.7,0,0,1,5.39-2.5,24.42,24.42,0,0,1,6.37-.82c1.63,0,3,0,4,.12,0,0,2,.18,4.26.5v-1.09c0-3.45-.71-5.07-2.12-6.16a10.48,10.48,0,0,0-6.39-1.67s-6.29-.08-11.26,2.62a3.3,3.3,0,0,1-.43.22.66.66,0,0,1-.85-.42l-1.83-4.92a.81.81,0,0,1,.24-1c2.32-1.82,8-2.92,8-2.92a42.74,42.74,0,0,1,6.93-.64c5.16,0,9.16,1.2,11.88,3.57s4.1,6.23,4.1,11.42v23.63A.81.81,0,0,1,132.93,165Zm17.35.75a.75.75,0,0,1-.74.79h-6.86a.75.75,0,0,1-.74-.79V110.59a.74.74,0,0,1,.74-.78h6.86a.74.74,0,0,1,.74.78ZM193.08,148a.76.76,0,0,1-.75.68l-25.84,0c.16,3.93,1.1,6.7,3,8.59s4.84,3,8.84,3a24.91,24.91,0,0,0,10.61-1.91.74.74,0,0,1,1,.45l1.7,4.73c.33.8.07,1.07-.22,1.24-1.62.9-5.55,2.56-13,2.58a26,26,0,0,1-9.38-1.51A16.55,16.55,0,0,1,158.75,155a27.64,27.64,0,0,1-1.17-8.25,29,29,0,0,1,1.13-8.24,18.73,18.73,0,0,1,3.5-6.71,17,17,0,0,1,6-4.54,20.26,20.26,0,0,1,8.54-1.66,18.84,18.84,0,0,1,7.4,1.5,15,15,0,0,1,4.91,3.74,16.08,16.08,0,0,1,3.3,6A27.72,27.72,0,0,1,193.08,148Zm21.48,19.52a27.18,27.18,0,0,1-13.34-3.11,26.62,26.62,0,0,1-2.54-1.54c-.09-.12-.47-.28-.19-1l1.81-5a.77.77,0,0,1,1.2-.41c.48.31.87.57,1.51,1a21.6,21.6,0,0,0,11.78,3.39c4,0,6.45-2.11,6.45-4.94v-.16c0-3.09-3.8-4.26-8.21-5.61l-1-.3c-6-1.72-12.49-4.21-12.49-11.84v-.15c0-7.25,5.85-12.31,14.22-12.31h.91A25.94,25.94,0,0,1,227.81,129a.85.85,0,0,1,.45,1c-.16.45-1.68,4.54-1.86,5-.32.86-1.21.29-1.21.29a26.33,26.33,0,0,0-11.62-3c-3.55,0-5.83,1.88-5.83,4.44v.15c0,3,3.91,4.26,8.45,5.73l.79.25c6,1.9,12.43,4.53,12.43,11.78v.15C229.39,162.65,223.71,167.52,214.56,167.52Zm45.15-34.94a.87.87,0,0,1-.87.75h-8.51l-5.82,32.95a49.55,49.55,0,0,1-2.27,8.68,17.21,17.21,0,0,1-3.36,5.79,12,12,0,0,1-4.78,3.33,18.89,18.89,0,0,1-6.34,1,15.55,15.55,0,0,1-3.79-.36,19.56,19.56,0,0,1-2.36-.69.77.77,0,0,1-.4-1c.18-.52,1.7-4.71,1.91-5.26a.72.72,0,0,1,.94-.41,6.12,6.12,0,0,0,1.4.45,11.66,11.66,0,0,0,2.07.23,9.74,9.74,0,0,0,3-.43,4.81,4.81,0,0,0,2.37-1.83,13,13,0,0,0,1.8-3.68,40.38,40.38,0,0,0,1.55-6.37l5.8-32.35h-5.71c-.69,0-.91-.32-.84-.83l1-5.37a.87.87,0,0,1,.87-.75h5.87l.31-1.75c.88-5.18,2.63-9.13,5.2-11.72S255,109,259.68,109a19.68,19.68,0,0,1,3.51.28,20.51,20.51,0,0,1,2.56.6.69.69,0,0,1,.47.9l-2,5.43c-.17.41-.28.66-1.12.39-.21-.06-.52-.15-1.32-.32a11.08,11.08,0,0,0-2.12-.21,9.11,9.11,0,0,0-2.77.39,5.4,5.4,0,0,0-2.16,1.35,7.46,7.46,0,0,0-1.82,2.76,34.61,34.61,0,0,0-1.36,5.83h8.26c.69,0,.9.32.84.83Zm37.83,22.14a18.37,18.37,0,0,1-3.47,6.63,16.42,16.42,0,0,1-5.87,4.42,21.73,21.73,0,0,1-16.36,0,16.37,16.37,0,0,1-5.87-4.42,18.38,18.38,0,0,1-3.47-6.63,30.43,30.43,0,0,1,0-16.41,18.29,18.29,0,0,1,3.47-6.63,16.67,16.67,0,0,1,5.86-4.46,21.19,21.19,0,0,1,16.37,0,16.7,16.7,0,0,1,5.87,4.46,18.37,18.37,0,0,1,3.47,6.63,30.42,30.42,0,0,1,0,16.41Zm31.95-27c-.24.7-1.5,4.25-1.94,5.43-.17.45-.45.75-1,.7a14.25,14.25,0,0,0-2.84-.35,12.5,12.5,0,0,0-3.46.49,7.85,7.85,0,0,0-3.2,1.92,9.62,9.62,0,0,0-2.26,3.8,22.58,22.58,0,0,0-.86,6.78v19.26a.78.78,0,0,1-.78.78h-6.79a.78.78,0,0,1-.79-.78V127.19a.75.75,0,0,1,.74-.78H313a.74.74,0,0,1,.74.78v3.15a11.57,11.57,0,0,1,4.36-3.22,12.83,12.83,0,0,1,6.67-1.07,23.47,23.47,0,0,1,4.33.74A.7.7,0,0,1,329.49,127.72Zm32.32,37.71A31.18,31.18,0,0,1,351,167.35c-6.62,0-11.69-1.91-15.07-5.68s-5.08-8.86-5.08-15.19a26.22,26.22,0,0,1,1.25-8.22,18.83,18.83,0,0,1,3.71-6.63,17.59,17.59,0,0,1,6.15-4.45,20.82,20.82,0,0,1,8.51-1.64,38.89,38.89,0,0,1,5.73.38,29.79,29.79,0,0,1,5.09,1.29.69.69,0,0,1,.48.9c-.71,2-1.21,3.36-1.88,5.22-.28.79-.88.52-.88.52a25.63,25.63,0,0,0-8.07-1.15c-3.77,0-6.61,1.26-8.47,3.73s-2.92,5.73-2.93,10.05c0,4.75,1.17,8.26,3.28,10.44s5,3.27,8.74,3.27a26.67,26.67,0,0,0,4.18-.3,17.29,17.29,0,0,0,3.55-1,.73.73,0,0,1,1,.46l1.87,5.18A.7.7,0,0,1,361.81,165.42ZM400.08,148a.76.76,0,0,1-.75.68l-25.84,0c.16,3.93,1.1,6.7,3,8.59s4.83,3,8.84,3a24.91,24.91,0,0,0,10.61-1.91.74.74,0,0,1,1,.45l1.7,4.73c.33.8.07,1.07-.22,1.24-1.62.9-5.55,2.56-13,2.58a26,26,0,0,1-9.38-1.51A16.55,16.55,0,0,1,365.74,155a27.64,27.64,0,0,1-1.17-8.25,29,29,0,0,1,1.13-8.24,18.73,18.73,0,0,1,3.5-6.71,17,17,0,0,1,6-4.54,20.25,20.25,0,0,1,8.53-1.66,18.82,18.82,0,0,1,7.41,1.5,15.1,15.1,0,0,1,4.91,3.74,16.08,16.08,0,0,1,3.3,6A27.72,27.72,0,0,1,400.08,148Z"/></g></g></svg>
