<svg xmlns:dc="http://purl.org/dc/elements/1.1/" xmlns:cc="http://creativecommons.org/ns#" xmlns:rdf="http://www.w3.org/1999/02/22-rdf-syntax-ns#" xmlns:svg="http://www.w3.org/2000/svg" xmlns="http://www.w3.org/2000/svg" xmlns:sodipodi="http://sodipodi.sourceforge.net/DTD/sodipodi-0.dtd" xmlns:inkscape="http://www.inkscape.org/namespaces/inkscape" viewBox="0 0 445.92 312.12" version="1.1" id="svg32" sodipodi:docname="logo_salesforce.svg" inkscape:version="0.92.2 5c3e80d, 2017-08-06" width="445.92" height="312.12">
  <metadata id="metadata36">
    <rdf:RDF>
      <cc:Work rdf:about="">
        <dc:format>image/svg+xml</dc:format>
        <dc:type rdf:resource="http://purl.org/dc/dcmitype/StillImage"/>
        <dc:title>Asset 1</dc:title>
      </cc:Work>
    </rdf:RDF>
  </metadata>
  <sodipodi:namedview pagecolor="#ffffff" bordercolor="#666666" borderopacity="1" objecttolerance="10" gridtolerance="10" guidetolerance="10" inkscape:pageopacity="0" inkscape:pageshadow="2" inkscape:window-width="1346" inkscape:window-height="794" id="namedview34" showgrid="false" inkscape:zoom="0.64585574" inkscape:cx="221.41167" inkscape:cy="156.06" inkscape:window-x="663" inkscape:window-y="227" inkscape:window-maximized="0" inkscape:current-layer="svg32"/>
  <defs id="defs4">
    <style id="style2">.cls-1{fill:#139cd8;}.cls-2,.cls-3{fill:#fff;}.cls-3{fill-rule:evenodd;}</style>
  </defs>
  <title id="title6">Asset 1</title>
  <g id="Layer_2" data-name="Layer 2">
    <g id="Layer_1-2" data-name="Layer 1">
      <path class="cls-1" d="M185.56,34A78.14,78.14,0,0,1,242.11,9.76c29.44,0,55.12,16.41,68.79,40.78a95.11,95.11,0,0,1,38.88-8.26c53.09,0,96.14,43.42,96.14,97s-43,97-96.14,97a96,96,0,0,1-18.94-1.89,70.27,70.27,0,0,1-92.08,28.91,80.17,80.17,0,0,1-149-3.62,74,74,0,0,1-15.3,1.59C33.32,261.23,0,227.56,0,186a75.3,75.3,0,0,1,37.21-65.14A86.6,86.6,0,0,1,185.56,34" id="path8"/>
      <path class="cls-2" d="M64.58,161.85c-.28.73.1.88.19,1a26.61,26.61,0,0,0,2.54,1.54,27.18,27.18,0,0,0,13.34,3.11c9.15,0,14.83-4.86,14.83-12.69v-.15c0-7.24-6.42-9.88-12.43-11.78l-.79-.25c-4.54-1.47-8.45-2.75-8.45-5.73v-.15c0-2.56,2.29-4.44,5.83-4.44a26.33,26.33,0,0,1,11.62,3s.89.57,1.21-.29c.18-.47,1.7-4.56,1.86-5a.85.85,0,0,0-.45-1,26,26,0,0,0-13.11-3.52h-.91c-8.38,0-14.22,5.06-14.22,12.31v.15c0,7.63,6.45,10.12,12.49,11.84l1,.3c4.4,1.35,8.2,2.52,8.2,5.61v.16c0,2.83-2.47,4.94-6.44,4.94a21.59,21.59,0,0,1-11.78-3.39c-.64-.38-1-.65-1.51-1a.73.73,0,0,0-1.21.41Z" id="path10"/>
      <path class="cls-2" d="M198.49,161.85c-.28.73.1.88.19,1a26.61,26.61,0,0,0,2.54,1.54,27.18,27.18,0,0,0,13.34,3.11c9.15,0,14.83-4.86,14.83-12.69v-.15c0-7.24-6.42-9.88-12.43-11.78l-.79-.25c-4.54-1.47-8.45-2.75-8.45-5.73v-.15c0-2.56,2.29-4.44,5.83-4.44a26.33,26.33,0,0,1,11.62,3s.89.57,1.21-.29c.18-.47,1.7-4.56,1.86-5a.85.85,0,0,0-.45-1,25.94,25.94,0,0,0-13.11-3.52h-.91c-8.38,0-14.22,5.06-14.22,12.31v.15c0,7.63,6.46,10.12,12.49,11.84l1,.3c4.4,1.35,8.21,2.52,8.21,5.61v.16c0,2.83-2.47,4.94-6.45,4.94A21.6,21.6,0,0,1,203,157.39c-.64-.38-1-.64-1.51-1a.77.77,0,0,0-1.2.41Z" id="path12"/>
      <path class="cls-2" d="M297.54,138.31a18.37,18.37,0,0,0-3.47-6.63,16.7,16.7,0,0,0-5.87-4.46,21.19,21.19,0,0,0-16.37,0,16.67,16.67,0,0,0-5.86,4.46,18.29,18.29,0,0,0-3.47,6.63,30.43,30.43,0,0,0,0,16.41,18.38,18.38,0,0,0,3.47,6.63,16.37,16.37,0,0,0,5.87,4.42,21.73,21.73,0,0,0,16.36,0,16.43,16.43,0,0,0,5.87-4.42,18.37,18.37,0,0,0,3.47-6.63,30.43,30.43,0,0,0,0-16.41m-7.63,8.2c0,4.42-.83,7.92-2.45,10.38s-4,3.63-7.43,3.63-5.81-1.19-7.4-3.63-2.42-6-2.42-10.38.81-7.9,2.41-10.34,4-3.59,7.41-3.59,5.82,1.17,7.43,3.59,2.45,5.92,2.45,10.34" id="path14"/>
      <path class="cls-3" d="M360.24,159.34a.73.73,0,0,0-1-.46,17.3,17.3,0,0,1-3.55,1,26.67,26.67,0,0,1-4.18.3c-3.69,0-6.63-1.1-8.74-3.27s-3.29-5.69-3.28-10.44c0-4.32,1.06-7.57,2.93-10.05s4.7-3.73,8.47-3.73a25.63,25.63,0,0,1,8.07,1.15s.6.26.88-.52c.68-1.86,1.17-3.18,1.88-5.22a.69.69,0,0,0-.48-.9,29.79,29.79,0,0,0-5.09-1.29,38.89,38.89,0,0,0-5.73-.38,20.82,20.82,0,0,0-8.51,1.64,17.59,17.59,0,0,0-6.15,4.45,18.83,18.83,0,0,0-3.71,6.63,26.22,26.22,0,0,0-1.25,8.22c0,6.33,1.7,11.45,5.08,15.19s8.45,5.68,15.07,5.68a31.19,31.19,0,0,0,10.81-1.93.7.7,0,0,0,.31-.91Z" id="path16"/>
      <path class="cls-3" d="M399.3,136.87a16.08,16.08,0,0,0-3.3-6,15.1,15.1,0,0,0-4.91-3.74,18.82,18.82,0,0,0-7.41-1.5,20.24,20.24,0,0,0-8.53,1.66,17,17,0,0,0-6,4.54,18.73,18.73,0,0,0-3.5,6.71,29,29,0,0,0-1.13,8.24,27.64,27.64,0,0,0,1.17,8.25A16.55,16.55,0,0,0,376,165.86a26,26,0,0,0,9.38,1.51c7.46,0,11.4-1.68,13-2.58.29-.16.56-.44.22-1.24l-1.7-4.73a.74.74,0,0,0-1-.45,24.91,24.91,0,0,1-10.61,1.91c-4,0-7-1.19-8.84-3s-2.85-4.67-3-8.59l25.84,0a.76.76,0,0,0,.75-.68,27.72,27.72,0,0,0-.77-11.13m-25.7,5.4a15.06,15.06,0,0,1,2.09-6.09,8.23,8.23,0,0,1,7.39-3.76,8,8,0,0,1,7.24,3.76,12.75,12.75,0,0,1,1.72,6.1Z" id="path18"/>
      <path class="cls-3" d="M192.31,136.87a16.08,16.08,0,0,0-3.3-6,15,15,0,0,0-4.91-3.74,18.84,18.84,0,0,0-7.4-1.5,20.26,20.26,0,0,0-8.54,1.66,17,17,0,0,0-6,4.54,18.73,18.73,0,0,0-3.5,6.71,29,29,0,0,0-1.13,8.24,27.64,27.64,0,0,0,1.17,8.25A16.55,16.55,0,0,0,169,165.86a26,26,0,0,0,9.38,1.51c7.46,0,11.4-1.68,13-2.58.29-.16.56-.44.22-1.24l-1.7-4.73a.74.74,0,0,0-1-.45,24.91,24.91,0,0,1-10.61,1.91c-4,0-7-1.19-8.84-3s-2.85-4.67-3-8.59l25.84,0a.76.76,0,0,0,.75-.68,27.72,27.72,0,0,0-.77-11.13m-25.7,5.4a15.16,15.16,0,0,1,2.08-6.09,8.25,8.25,0,0,1,7.39-3.76,8,8,0,0,1,7.25,3.76,12.83,12.83,0,0,1,1.71,6.1Z" id="path20"/>
      <path class="cls-2" d="M121,141c-1-.08-2.41-.12-4-.12a24.42,24.42,0,0,0-6.37.82,16.7,16.7,0,0,0-5.39,2.5,12.09,12.09,0,0,0-5.13,10.22,13.42,13.42,0,0,0,1.19,5.9,10.63,10.63,0,0,0,3.37,4,14.17,14.17,0,0,0,5.26,2.28,30.87,30.87,0,0,0,6.85.7,47.26,47.26,0,0,0,7.85-.66c2.54-.43,5.64-1.06,6.51-1.26s1.81-.46,1.81-.46a.81.81,0,0,0,.59-.85V140.52c0-5.19-1.38-9-4.1-11.42s-6.71-3.57-11.88-3.57a42.74,42.74,0,0,0-6.93.64s-5.64,1.09-8,2.92a.81.81,0,0,0-.24,1l1.83,4.92a.66.66,0,0,0,.85.42,3.3,3.3,0,0,0,.43-.22c5-2.7,11.26-2.62,11.26-2.62a10.48,10.48,0,0,1,6.39,1.67c1.41,1.09,2.12,2.71,2.12,6.16v1.09c-2.22-.32-4.26-.5-4.26-.5M110.74,159.2a5,5,0,0,1-1.49-1.53,6.15,6.15,0,0,1-.78-3.36,5.66,5.66,0,0,1,2.31-5s2.23-1.94,7.5-1.87a52.31,52.31,0,0,1,7,.6v11.75a52.92,52.92,0,0,1-7,.92c-5.26.32-7.6-1.51-7.58-1.51" id="path22"/>
      <path class="cls-3" d="M329.49,127.72a.7.7,0,0,0-.39-.93,23.47,23.47,0,0,0-4.33-.74,12.83,12.83,0,0,0-6.67,1.07,11.57,11.57,0,0,0-4.36,3.22v-3.15a.75.75,0,0,0-.74-.78h-6.63a.75.75,0,0,0-.74.78v38.56a.78.78,0,0,0,.79.78h6.79a.78.78,0,0,0,.78-.78V146.49a22.58,22.58,0,0,1,.86-6.78,9.62,9.62,0,0,1,2.26-3.8,7.85,7.85,0,0,1,3.2-1.92,12.5,12.5,0,0,1,3.46-.49,14.25,14.25,0,0,1,2.84.35c.5.05.78-.26,1-.7.44-1.18,1.7-4.72,1.94-5.43" id="path24"/>
      <path class="cls-3" d="M265.75,109.85a20.51,20.51,0,0,0-2.56-.6,19.68,19.68,0,0,0-3.51-.28c-4.67,0-8.36,1.32-10.94,3.93s-4.32,6.53-5.2,11.72l-.31,1.75h-5.87a.87.87,0,0,0-.87.75l-1,5.37c-.07.51.15.83.84.83h5.71l-5.8,32.35a40.38,40.38,0,0,1-1.55,6.37,13,13,0,0,1-1.8,3.68,4.81,4.81,0,0,1-2.37,1.83,9.74,9.74,0,0,1-3,.43,11.66,11.66,0,0,1-2.07-.23,6.12,6.12,0,0,1-1.4-.45.72.72,0,0,0-.94.41c-.21.55-1.73,4.74-1.91,5.26a.77.77,0,0,0,.4,1,19.56,19.56,0,0,0,2.36.69,15.55,15.55,0,0,0,3.79.36,18.89,18.89,0,0,0,6.34-1,12,12,0,0,0,4.78-3.33,17.21,17.21,0,0,0,3.36-5.79,49.54,49.54,0,0,0,2.27-8.68l5.82-32.95h8.51a.87.87,0,0,0,.87-.75l1-5.37c.07-.51-.15-.83-.84-.83h-8.26a34.61,34.61,0,0,1,1.36-5.83,7.46,7.46,0,0,1,1.82-2.76,5.4,5.4,0,0,1,2.16-1.35,9.11,9.11,0,0,1,2.77-.39,11.07,11.07,0,0,1,2.12.21c.8.17,1.11.26,1.32.32.84.26,1,0,1.12-.39l2-5.43a.69.69,0,0,0-.47-.9" id="path26"/>
      <path class="cls-3" d="M150.28,165.75a.75.75,0,0,1-.74.79h-6.86a.75.75,0,0,1-.74-.79V110.59a.74.74,0,0,1,.74-.78h6.86a.74.74,0,0,1,.74.78Z" id="path28"/>
    </g>
  </g>
</svg>
